<mxfile host="app.diagrams.net" modified="2024-02-28T12:15:52.841Z" agent="Mozilla/5.0 (Macintosh; Intel Mac OS X 10_15_7) AppleWebKit/537.36 (KHTML, like Gecko) Chrome/121.0.0.0 Safari/537.36" version="22.1.18" etag="nu3OAJH1eQwY4vDV0prP" type="github">
  <diagram name="第 1 页" id="wCeaDdsxxpcl_vGbulwQ">
    <mxGraphModel>
      <root>
        <mxCell id="0" />
        <mxCell id="1" parent="0" />
      </root>
    </mxGraphModel>
  </diagram>
</mxfile>
